<?xml version="1.0" standalone="no"?>
<!DOCTYPE svg PUBLIC "-//W3C//DTD SVG 20010904//EN"
 "http://www.w3.org/TR/2001/REC-SVG-20010904/DTD/svg10.dtd">
<svg version="1.0" xmlns="http://www.w3.org/2000/svg"
 width="660.000000pt" height="660.000000pt" viewBox="0 0 660.000000 660.000000"
 preserveAspectRatio="xMidYMid meet">
<metadata>
Created by potrace 1.16, written by Peter Selinger 2001-2019
</metadata>
<g transform="translate(0.000000,660.000000) scale(0.100000,-0.100000)"
fill="#000000" stroke="none">
<path d="M4405 5897 c-72 -38 -181 -141 -190 -179 -18 -72 25 -113 116 -112
85 1 170 59 232 160 38 61 43 103 17 137 -31 39 -95 37 -175 -6z"/>
<path d="M5107 5816 c-94 -34 -161 -112 -138 -162 13 -30 78 -48 140 -39 123
17 213 133 151 195 -24 24 -94 26 -153 6z"/>
<path d="M4529 5517 c-63 -42 -30 -104 50 -93 61 9 102 71 69 104 -20 20 -82
14 -119 -11z"/>
<path d="M3931 5515 c-228 -50 -721 -273 -1066 -482 -179 -109 -285 -154 -500
-208 -71 -18 -131 -37 -133 -43 -1 -5 18 -40 44 -78 247 -366 904 -689 1514
-744 211 -20 453 10 578 71 76 37 179 132 268 245 141 180 257 262 415 290
194 36 227 43 281 64 128 48 232 157 263 276 21 82 19 205 -5 299 -35 135
-101 225 -206 276 -54 27 -79 33 -157 37 -219 11 -416 -57 -705 -244 -167
-108 -232 -143 -264 -144 -43 0 -49 24 -36 142 6 56 8 120 4 140 -19 103 -124
140 -295 103z"/>
<path d="M5819 5401 c-48 -15 -71 -33 -85 -67 -13 -32 -13 -39 6 -81 24 -54
154 -191 255 -268 147 -113 241 -110 302 8 38 75 38 164 0 229 -46 77 -145
142 -264 173 -60 16 -170 19 -214 6z"/>
<path d="M1851 5014 c-1 -11 -7 -40 -15 -65 -8 -24 -62 -222 -121 -439 -58
-217 -117 -433 -130 -480 -13 -47 -69 -254 -125 -460 -56 -206 -137 -504 -180
-661 -43 -157 -84 -321 -90 -363 -24 -148 2 -301 80 -461 58 -118 110 -190
222 -304 241 -245 630 -443 1018 -518 154 -29 415 -41 540 -24 324 44 573 191
701 417 l29 51 182 12 c213 14 336 36 481 85 277 92 509 261 688 500 75 100
312 528 342 619 16 49 21 88 21 187 1 112 -2 134 -27 207 -55 159 -167 293
-307 367 -71 38 -152 62 -327 97 -62 12 -113 26 -113 31 0 5 16 43 35 85 19
42 35 78 35 80 0 3 -21 -14 -47 -36 -239 -211 -818 -234 -1426 -56 -747 219
-1351 661 -1442 1055 -21 94 -23 100 -24 74z m206 -780 c71 -67 339 -274 356
-274 2 0 52 -29 112 -65 60 -36 114 -66 119 -68 13 -4 8 -21 -104 -307 -133
-339 -131 -334 -139 -343 -7 -7 -164 95 -253 164 -69 53 -251 215 -280 249
-16 18 -28 39 -28 48 0 9 16 73 35 142 19 69 51 184 70 255 55 202 65 235 70
235 3 0 22 -16 42 -36z m2663 -949 c196 -42 222 -52 250 -98 28 -46 25 -98
-10 -166 -79 -158 -197 -363 -243 -421 -120 -155 -258 -254 -440 -316 -61 -21
-96 -29 -224 -50 -19 -3 -33 -1 -33 5 0 8 104 248 183 421 32 71 254 571 279
629 15 36 22 42 41 38 12 -3 101 -22 197 -42z m-2925 -11 c109 -96 243 -199
360 -279 72 -48 131 -91 133 -95 2 -4 -13 -47 -31 -96 -149 -386 -249 -640
-256 -647 -11 -11 -194 128 -263 200 -64 68 -151 196 -168 249 -9 25 -9 43 -1
62 5 15 24 79 40 142 60 232 136 500 141 500 3 -1 23 -17 45 -36z"/>
<path d="M5603 4676 c-31 -14 -33 -18 -33 -64 0 -58 30 -154 73 -235 46 -88
103 -128 161 -113 62 15 126 107 126 179 0 143 -205 288 -327 233z"/>
</g>
</svg>
